<mxfile host="app.diagrams.net" agent="Mozilla/5.0 (X11; Linux x86_64; rv:128.0) Gecko/20100101 Firefox/128.0" version="26.1.1">
  <diagram name="StrÃ¡nka-1" id="-DvDgmI4tmswUM17VYlb">
    <mxGraphModel dx="1114" dy="694" grid="1" gridSize="5" guides="1" tooltips="1" connect="1" arrows="1" fold="1" page="1" pageScale="1" pageWidth="827" pageHeight="1169" math="0" shadow="0">
      <root>
        <mxCell id="0" />
        <mxCell id="1" parent="0" />
        <mxCell id="enSuWCbhHTNp-ptFhnt3-59" value="" style="endArrow=none;html=1;rounded=0;dashed=1;dashPattern=8 8;" parent="1" edge="1">
          <mxGeometry width="50" height="50" relative="1" as="geometry">
            <mxPoint x="640" y="240" as="sourcePoint" />
            <mxPoint x="750" y="230" as="targetPoint" />
          </mxGeometry>
        </mxCell>
        <mxCell id="enSuWCbhHTNp-ptFhnt3-15" value="" style="endArrow=none;html=1;rounded=0;" parent="1" edge="1">
          <mxGeometry width="50" height="50" relative="1" as="geometry">
            <mxPoint x="120" y="420" as="sourcePoint" />
            <mxPoint x="120" y="170" as="targetPoint" />
            <Array as="points">
              <mxPoint x="230" y="410" />
              <mxPoint x="230" y="180" />
            </Array>
          </mxGeometry>
        </mxCell>
        <mxCell id="enSuWCbhHTNp-ptFhnt3-14" value="" style="endArrow=none;html=1;rounded=0;" parent="1" edge="1">
          <mxGeometry width="50" height="50" relative="1" as="geometry">
            <mxPoint x="120" y="465" as="sourcePoint" />
            <mxPoint x="120" y="160" as="targetPoint" />
          </mxGeometry>
        </mxCell>
        <mxCell id="enSuWCbhHTNp-ptFhnt3-23" value="" style="endArrow=none;dashed=1;html=1;rounded=0;dashPattern=1 2;" parent="1" edge="1">
          <mxGeometry width="50" height="50" relative="1" as="geometry">
            <mxPoint x="120" y="140" as="sourcePoint" />
            <mxPoint x="120" y="160" as="targetPoint" />
          </mxGeometry>
        </mxCell>
        <mxCell id="enSuWCbhHTNp-ptFhnt3-24" value="" style="endArrow=none;html=1;rounded=0;" parent="1" edge="1">
          <mxGeometry width="50" height="50" relative="1" as="geometry">
            <mxPoint x="120" y="140" as="sourcePoint" />
            <mxPoint x="120" y="45" as="targetPoint" />
          </mxGeometry>
        </mxCell>
        <mxCell id="enSuWCbhHTNp-ptFhnt3-1" value="&lt;div&gt;CNN&lt;/div&gt;" style="rounded=1;whiteSpace=wrap;html=1;fillColor=#ffe6cc;strokeColor=#d79b00;" parent="1" vertex="1">
          <mxGeometry x="70" y="50" width="100" height="20" as="geometry" />
        </mxCell>
        <mxCell id="enSuWCbhHTNp-ptFhnt3-3" value="&lt;div&gt;BatchNorm&lt;/div&gt;" style="rounded=1;whiteSpace=wrap;html=1;fillColor=#d5e8d4;strokeColor=#82b366;" parent="1" vertex="1">
          <mxGeometry x="70" y="80" width="100" height="20" as="geometry" />
        </mxCell>
        <mxCell id="enSuWCbhHTNp-ptFhnt3-4" value="ReLU" style="rounded=1;whiteSpace=wrap;html=1;fillColor=#dae8fc;strokeColor=#6c8ebf;" parent="1" vertex="1">
          <mxGeometry x="70" y="110" width="100" height="20" as="geometry" />
        </mxCell>
        <mxCell id="enSuWCbhHTNp-ptFhnt3-5" value="&lt;div&gt;CNN 1x1&lt;br&gt;&lt;/div&gt;" style="rounded=1;whiteSpace=wrap;html=1;fillColor=#ffe6cc;strokeColor=#d79b00;" parent="1" vertex="1">
          <mxGeometry x="180" y="180" width="100" height="20" as="geometry" />
        </mxCell>
        <mxCell id="enSuWCbhHTNp-ptFhnt3-6" value="&lt;div&gt;BatchNorm&lt;/div&gt;" style="rounded=1;whiteSpace=wrap;html=1;fillColor=#d5e8d4;strokeColor=#82b366;" parent="1" vertex="1">
          <mxGeometry x="180" y="210" width="100" height="20" as="geometry" />
        </mxCell>
        <mxCell id="enSuWCbhHTNp-ptFhnt3-7" value="ReLU" style="rounded=1;whiteSpace=wrap;html=1;fillColor=#dae8fc;strokeColor=#6c8ebf;" parent="1" vertex="1">
          <mxGeometry x="180" y="240" width="100" height="20" as="geometry" />
        </mxCell>
        <mxCell id="enSuWCbhHTNp-ptFhnt3-8" value="&lt;div&gt;CNN 3x3&lt;br&gt;&lt;/div&gt;" style="rounded=1;whiteSpace=wrap;html=1;fillColor=#ffe6cc;strokeColor=#d79b00;" parent="1" vertex="1">
          <mxGeometry x="195" y="270" width="70" height="20" as="geometry" />
        </mxCell>
        <mxCell id="enSuWCbhHTNp-ptFhnt3-9" value="&lt;div&gt;BatchNorm&lt;/div&gt;" style="rounded=1;whiteSpace=wrap;html=1;fillColor=#d5e8d4;strokeColor=#82b366;" parent="1" vertex="1">
          <mxGeometry x="195" y="300" width="70" height="20" as="geometry" />
        </mxCell>
        <mxCell id="enSuWCbhHTNp-ptFhnt3-10" value="ReLU" style="rounded=1;whiteSpace=wrap;html=1;fillColor=#dae8fc;strokeColor=#6c8ebf;" parent="1" vertex="1">
          <mxGeometry x="195" y="330" width="70" height="20" as="geometry" />
        </mxCell>
        <mxCell id="enSuWCbhHTNp-ptFhnt3-11" value="&lt;div&gt;CNN 1x1&lt;br&gt;&lt;/div&gt;" style="rounded=1;whiteSpace=wrap;html=1;fillColor=#ffe6cc;strokeColor=#d79b00;" parent="1" vertex="1">
          <mxGeometry x="180" y="360" width="100" height="20" as="geometry" />
        </mxCell>
        <mxCell id="enSuWCbhHTNp-ptFhnt3-12" value="&lt;div&gt;BatchNorm&lt;/div&gt;" style="rounded=1;whiteSpace=wrap;html=1;fillColor=#d5e8d4;strokeColor=#82b366;" parent="1" vertex="1">
          <mxGeometry x="180" y="390" width="100" height="20" as="geometry" />
        </mxCell>
        <mxCell id="enSuWCbhHTNp-ptFhnt3-13" value="ReLU" style="rounded=1;whiteSpace=wrap;html=1;fillColor=#dae8fc;strokeColor=#6c8ebf;" parent="1" vertex="1">
          <mxGeometry x="70" y="435" width="100" height="20" as="geometry" />
        </mxCell>
        <mxCell id="enSuWCbhHTNp-ptFhnt3-16" value="+" style="ellipse;aspect=fixed;fontSize=12;labelPosition=center;verticalLabelPosition=middle;align=center;verticalAlign=middle;whiteSpace=wrap;html=1;spacingTop=0;spacing=2;spacingLeft=0;spacingBottom=0;" parent="1" vertex="1">
          <mxGeometry x="110" y="410" width="20" height="20" as="geometry" />
        </mxCell>
        <mxCell id="enSuWCbhHTNp-ptFhnt3-21" value="&lt;div&gt;CNN 1x1&lt;br&gt;&lt;/div&gt;" style="rounded=1;whiteSpace=wrap;html=1;fillColor=#ffe6cc;strokeColor=#d79b00;shadow=0;glass=0;opacity=50;dashed=1;dashPattern=8 8;" parent="1" vertex="1">
          <mxGeometry x="70" y="180" width="100" height="20" as="geometry" />
        </mxCell>
        <mxCell id="enSuWCbhHTNp-ptFhnt3-22" value="&lt;div&gt;BatchNorm&lt;/div&gt;" style="rounded=1;whiteSpace=wrap;html=1;fillColor=#d5e8d4;strokeColor=#82b366;shadow=0;glass=0;opacity=50;dashed=1;dashPattern=8 8;" parent="1" vertex="1">
          <mxGeometry x="70" y="210" width="100" height="20" as="geometry" />
        </mxCell>
        <mxCell id="enSuWCbhHTNp-ptFhnt3-25" value="" style="endArrow=none;dashed=1;html=1;rounded=0;dashPattern=1 2;" parent="1" edge="1">
          <mxGeometry width="50" height="50" relative="1" as="geometry">
            <mxPoint x="119.76" y="465" as="sourcePoint" />
            <mxPoint x="119.76" y="485" as="targetPoint" />
          </mxGeometry>
        </mxCell>
        <mxCell id="enSuWCbhHTNp-ptFhnt3-26" value="" style="endArrow=none;html=1;rounded=0;" parent="1" edge="1">
          <mxGeometry width="50" height="50" relative="1" as="geometry">
            <mxPoint x="640" y="450" as="sourcePoint" />
            <mxPoint x="640" y="170" as="targetPoint" />
            <Array as="points">
              <mxPoint x="750" y="440" />
              <mxPoint x="750" y="180" />
            </Array>
          </mxGeometry>
        </mxCell>
        <mxCell id="enSuWCbhHTNp-ptFhnt3-27" value="" style="endArrow=none;html=1;rounded=0;" parent="1" edge="1">
          <mxGeometry width="50" height="50" relative="1" as="geometry">
            <mxPoint x="640" y="465" as="sourcePoint" />
            <mxPoint x="640" y="160" as="targetPoint" />
          </mxGeometry>
        </mxCell>
        <mxCell id="enSuWCbhHTNp-ptFhnt3-28" value="" style="endArrow=none;dashed=1;html=1;rounded=0;dashPattern=1 2;" parent="1" edge="1">
          <mxGeometry width="50" height="50" relative="1" as="geometry">
            <mxPoint x="640" y="140" as="sourcePoint" />
            <mxPoint x="640" y="160" as="targetPoint" />
          </mxGeometry>
        </mxCell>
        <mxCell id="enSuWCbhHTNp-ptFhnt3-29" value="" style="endArrow=none;html=1;rounded=0;" parent="1" edge="1">
          <mxGeometry width="50" height="50" relative="1" as="geometry">
            <mxPoint x="640" y="140" as="sourcePoint" />
            <mxPoint x="640" y="45" as="targetPoint" />
          </mxGeometry>
        </mxCell>
        <mxCell id="enSuWCbhHTNp-ptFhnt3-30" value="&lt;div&gt;CNN&lt;/div&gt;" style="rounded=1;whiteSpace=wrap;html=1;fillColor=#ffe6cc;strokeColor=#d79b00;" parent="1" vertex="1">
          <mxGeometry x="590" y="50" width="100" height="20" as="geometry" />
        </mxCell>
        <mxCell id="enSuWCbhHTNp-ptFhnt3-33" value="&lt;div&gt;CNN 1x1&lt;br&gt;&lt;/div&gt;" style="rounded=1;whiteSpace=wrap;html=1;fillColor=#ffe6cc;strokeColor=#d79b00;" parent="1" vertex="1">
          <mxGeometry x="700" y="240" width="100" height="20" as="geometry" />
        </mxCell>
        <mxCell id="enSuWCbhHTNp-ptFhnt3-34" value="&lt;div&gt;BatchNorm&lt;/div&gt;" style="rounded=1;whiteSpace=wrap;html=1;fillColor=#d5e8d4;strokeColor=#82b366;" parent="1" vertex="1">
          <mxGeometry x="700" y="180" width="100" height="20" as="geometry" />
        </mxCell>
        <mxCell id="enSuWCbhHTNp-ptFhnt3-35" value="ReLU" style="rounded=1;whiteSpace=wrap;html=1;fillColor=#dae8fc;strokeColor=#6c8ebf;" parent="1" vertex="1">
          <mxGeometry x="700" y="210" width="100" height="20" as="geometry" />
        </mxCell>
        <mxCell id="enSuWCbhHTNp-ptFhnt3-36" value="&lt;div&gt;CNN 3x3&lt;br&gt;&lt;/div&gt;" style="rounded=1;whiteSpace=wrap;html=1;fillColor=#ffe6cc;strokeColor=#d79b00;" parent="1" vertex="1">
          <mxGeometry x="715" y="330" width="70" height="20" as="geometry" />
        </mxCell>
        <mxCell id="enSuWCbhHTNp-ptFhnt3-37" value="&lt;div&gt;BatchNorm&lt;/div&gt;" style="rounded=1;whiteSpace=wrap;html=1;fillColor=#d5e8d4;strokeColor=#82b366;" parent="1" vertex="1">
          <mxGeometry x="715" y="270" width="70" height="20" as="geometry" />
        </mxCell>
        <mxCell id="enSuWCbhHTNp-ptFhnt3-38" value="ReLU" style="rounded=1;whiteSpace=wrap;html=1;fillColor=#dae8fc;strokeColor=#6c8ebf;" parent="1" vertex="1">
          <mxGeometry x="715" y="300" width="70" height="20" as="geometry" />
        </mxCell>
        <mxCell id="enSuWCbhHTNp-ptFhnt3-39" value="&lt;div&gt;CNN 1x1&lt;br&gt;&lt;/div&gt;" style="rounded=1;whiteSpace=wrap;html=1;fillColor=#ffe6cc;strokeColor=#d79b00;" parent="1" vertex="1">
          <mxGeometry x="700" y="420" width="100" height="20" as="geometry" />
        </mxCell>
        <mxCell id="enSuWCbhHTNp-ptFhnt3-40" value="&lt;div&gt;BatchNorm&lt;/div&gt;" style="rounded=1;whiteSpace=wrap;html=1;fillColor=#d5e8d4;strokeColor=#82b366;" parent="1" vertex="1">
          <mxGeometry x="700" y="360" width="100" height="20" as="geometry" />
        </mxCell>
        <mxCell id="enSuWCbhHTNp-ptFhnt3-41" value="ReLU" style="rounded=1;whiteSpace=wrap;html=1;fillColor=#dae8fc;strokeColor=#6c8ebf;" parent="1" vertex="1">
          <mxGeometry x="700" y="390" width="100" height="20" as="geometry" />
        </mxCell>
        <mxCell id="enSuWCbhHTNp-ptFhnt3-42" value="+" style="ellipse;aspect=fixed;fontSize=12;labelPosition=center;verticalLabelPosition=middle;align=center;verticalAlign=middle;whiteSpace=wrap;html=1;spacingTop=0;spacing=2;spacingLeft=0;spacingBottom=0;" parent="1" vertex="1">
          <mxGeometry x="630" y="440" width="20" height="20" as="geometry" />
        </mxCell>
        <mxCell id="enSuWCbhHTNp-ptFhnt3-43" value="&lt;div&gt;CNN 1x1&lt;br&gt;&lt;/div&gt;" style="rounded=1;whiteSpace=wrap;html=1;fillColor=#ffe6cc;strokeColor=#d79b00;shadow=0;glass=0;opacity=50;dashed=1;dashPattern=8 8;" parent="1" vertex="1">
          <mxGeometry x="590" y="240" width="100" height="20" as="geometry" />
        </mxCell>
        <mxCell id="enSuWCbhHTNp-ptFhnt3-45" value="" style="endArrow=none;dashed=1;html=1;rounded=0;dashPattern=1 2;" parent="1" edge="1">
          <mxGeometry width="50" height="50" relative="1" as="geometry">
            <mxPoint x="639.76" y="465" as="sourcePoint" />
            <mxPoint x="639.76" y="485" as="targetPoint" />
          </mxGeometry>
        </mxCell>
        <mxCell id="enSuWCbhHTNp-ptFhnt3-47" value="" style="endArrow=none;html=1;rounded=0;" parent="1" edge="1">
          <mxGeometry width="50" height="50" relative="1" as="geometry">
            <mxPoint x="640" y="610" as="sourcePoint" />
            <mxPoint x="640" y="485" as="targetPoint" />
          </mxGeometry>
        </mxCell>
        <mxCell id="enSuWCbhHTNp-ptFhnt3-49" value="&lt;div&gt;BatchNorm&lt;/div&gt;" style="rounded=1;whiteSpace=wrap;html=1;fillColor=#d5e8d4;strokeColor=#82b366;" parent="1" vertex="1">
          <mxGeometry x="590" y="495" width="100" height="20" as="geometry" />
        </mxCell>
        <mxCell id="enSuWCbhHTNp-ptFhnt3-50" value="ReLU" style="rounded=1;whiteSpace=wrap;html=1;fillColor=#dae8fc;strokeColor=#6c8ebf;" parent="1" vertex="1">
          <mxGeometry x="590" y="525" width="100" height="20" as="geometry" />
        </mxCell>
        <mxCell id="enSuWCbhHTNp-ptFhnt3-51" value="Global Avg Pool" style="rounded=1;whiteSpace=wrap;html=1;fillColor=#e1d5e7;strokeColor=#9673a6;" parent="1" vertex="1">
          <mxGeometry x="590" y="555" width="100" height="20" as="geometry" />
        </mxCell>
        <mxCell id="enSuWCbhHTNp-ptFhnt3-52" value="Linear" style="rounded=1;whiteSpace=wrap;html=1;fillColor=#ffe6cc;strokeColor=#d79b00;" parent="1" vertex="1">
          <mxGeometry x="590" y="585" width="100" height="20" as="geometry" />
        </mxCell>
        <mxCell id="enSuWCbhHTNp-ptFhnt3-54" value="" style="endArrow=none;html=1;rounded=0;" parent="1" edge="1">
          <mxGeometry width="50" height="50" relative="1" as="geometry">
            <mxPoint x="120" y="610" as="sourcePoint" />
            <mxPoint x="120" y="485" as="targetPoint" />
          </mxGeometry>
        </mxCell>
        <mxCell id="enSuWCbhHTNp-ptFhnt3-57" value="Global Avg Pool" style="rounded=1;whiteSpace=wrap;html=1;fillColor=#e1d5e7;strokeColor=#9673a6;" parent="1" vertex="1">
          <mxGeometry x="70" y="555" width="100" height="20" as="geometry" />
        </mxCell>
        <mxCell id="enSuWCbhHTNp-ptFhnt3-58" value="Linear" style="rounded=1;whiteSpace=wrap;html=1;fillColor=#ffe6cc;strokeColor=#d79b00;" parent="1" vertex="1">
          <mxGeometry x="70" y="585" width="100" height="20" as="geometry" />
        </mxCell>
        <mxCell id="enSuWCbhHTNp-ptFhnt3-60" value="Regular ResNet" style="text;html=1;align=center;verticalAlign=middle;whiteSpace=wrap;rounded=0;fontStyle=1" parent="1" vertex="1">
          <mxGeometry x="40" y="20" width="160" height="20" as="geometry" />
        </mxCell>
        <mxCell id="enSuWCbhHTNp-ptFhnt3-61" value="Full Pre-Activation ResNet" style="text;html=1;align=center;verticalAlign=middle;whiteSpace=wrap;rounded=0;fontStyle=1" parent="1" vertex="1">
          <mxGeometry x="560" y="20" width="160" height="20" as="geometry" />
        </mxCell>
        <mxCell id="enSuWCbhHTNp-ptFhnt3-62" value="&lt;div&gt;The dashed layers&lt;/div&gt;" style="text;html=1;align=left;verticalAlign=middle;whiteSpace=wrap;rounded=0;" parent="1" vertex="1">
          <mxGeometry x="280" y="460" width="114" height="20" as="geometry" />
        </mxCell>
        <mxCell id="enSuWCbhHTNp-ptFhnt3-63" value="&lt;div&gt;CNN 1x1&lt;br&gt;&lt;/div&gt;" style="rounded=1;whiteSpace=wrap;html=1;fillColor=#ffe6cc;strokeColor=#d79b00;shadow=0;glass=0;opacity=50;dashed=1;dashPattern=8 8;" parent="1" vertex="1">
          <mxGeometry x="384" y="460" width="55" height="20" as="geometry" />
        </mxCell>
        <mxCell id="enSuWCbhHTNp-ptFhnt3-64" value="&lt;div&gt;BatchNorm&lt;/div&gt;" style="rounded=1;whiteSpace=wrap;html=1;fillColor=#d5e8d4;strokeColor=#82b366;shadow=0;glass=0;opacity=50;dashed=1;dashPattern=8 8;" parent="1" vertex="1">
          <mxGeometry x="444" y="460" width="65" height="20" as="geometry" />
        </mxCell>
        <mxCell id="enSuWCbhHTNp-ptFhnt3-65" value="and dashed connections" style="text;html=1;align=left;verticalAlign=middle;whiteSpace=wrap;rounded=0;" parent="1" vertex="1">
          <mxGeometry x="280" y="480" width="140" height="20" as="geometry" />
        </mxCell>
        <mxCell id="enSuWCbhHTNp-ptFhnt3-66" value="" style="endArrow=none;html=1;rounded=0;dashed=1;dashPattern=8 8;" parent="1" edge="1">
          <mxGeometry width="50" height="50" relative="1" as="geometry">
            <mxPoint x="415" y="490" as="sourcePoint" />
            <mxPoint x="505" y="490" as="targetPoint" />
          </mxGeometry>
        </mxCell>
        <mxCell id="enSuWCbhHTNp-ptFhnt3-68" value="are used at the beginning of a new stage," style="text;html=1;align=left;verticalAlign=middle;whiteSpace=wrap;rounded=0;" parent="1" vertex="1">
          <mxGeometry x="280" y="500" width="230" height="20" as="geometry" />
        </mxCell>
        <mxCell id="enSuWCbhHTNp-ptFhnt3-69" value="i.e., when the first convolution has stride 2." style="text;html=1;align=left;verticalAlign=middle;whiteSpace=wrap;rounded=0;" parent="1" vertex="1">
          <mxGeometry x="280" y="520" width="230" height="20" as="geometry" />
        </mxCell>
      </root>
    </mxGraphModel>
  </diagram>
</mxfile>
